<svg xmlns:svg="http://www.w3.org/2000/svg" xmlns="http://www.w3.org/2000/svg" id="svg2" version="1.1" width="800" height="176.26"><metadata id="metadata8"/><defs id="defs6"/><g id="g2987" transform="translate(-18.569173,74.482291)"><rect id="rect3864" width="800" height="176.26" x="18.57" y="-74.49" fill="#fff"/><path d="m30.15-52.7c9.86-3 46.92-16.38 107.08-16.87 28.73-0.24 48.43 16.43 54.59 34.64 1.78 8.1-0.4 31.04-10.37 45.39-9.47 13.62-23.52 27.51-49.5 36.67-7.4 2.37-26.66 1.98-30.45-9.55-2.02-10.74 14.91-49.59 35.09-78.18 6.96-0.08 19.02-0.58 14.45 7.74l-27.87 51.61c-2.22 8.92 2.55 11.34 8.77 10.06 17.53-5.52 34.25-21.57 40.77-41.54 6.99-18.85-13.92-32.43-27.23-35.07-26.72-5.3-66.83-0.55-107.1 13.99-4.67 1.69-8.71 4.69-11.96 4-14.22-2.99-3.11-20.01 3.72-22.89z" id="path3784" style="fill:#3b43a8;stroke-width:1.94;stroke:#3b43a8"/><path id="path3786" d="m106.75 56.11c0 2.88-2.15 5.22-4.79 5.22-2.65 0-4.79-2.33-4.79-5.22 0-2.88 2.15-5.22 4.79-5.22 2.65 0 4.79 2.33 4.79 5.22z" transform="matrix(1.9640157,1.1627083,-1.2945879,1.9642702,65.557887,-195.61462)" style="fill:#3b43a8;stroke:#3b43a8"/><path d="m243.94 88.41c-4.13 12.18 14.73 16.25 18.06 8.26L297.61-1.13C301.78-12.78 296.22-14.03 288.06-9.13 279.54 0.48 272.04 12.16 260.97 16.67 242.94 23.6 242.24 15.67 243.16 6.35c14.12-26.2 29.92-45.97 47.48-59.09 10.13-5.06 7.31 4.13 5.93 9.29-8.16 21.56 14.07 14.57 17.8 6.71 1.48-1.12 5.81-17.1 3.77-25.07-2.11-8.24-12.39-12.51-16.42-11.57-32.05 7.45-64.9 49.15-74.83 78.7-3.64 11.63-4.76 29.91 12.13 35.87 7.59 1.56 15.46 1.19 23.74-2.06z" id="path3788" style="fill:#3b43a8;stroke-width:1.94;stroke:#3b43a8"/><g id="g3830" transform="matrix(1.9417209,0,0,1.9417209,-17.483417,-95.832871)"><path transform="translate(7.3257451,10.313789)" id="path3798" d="m176.66 19.6c-0.01 2.55-0.46 4.75 0.94 7.53l15.62 0.41-4.45 9.99-6.95 1.63c-4.44-7.28-11.87-5.51-15.43-2.65-21.32 17.71-7.21 30.46 5.12 25.46 6.8-2.76 7.91-13.31 14.19-14.54 0 0-0.72 9.72 0.53 11.55 3.27 6.33 11.06-1.85 17.64-3.94 2.99-0.95 0.72 4.87 3.66 6.47 4.87 3.19 16.56-5.95 16.55-4.77-0.04 8.75 14.89 8.86 20.7-0.9 0.38 11.42 10.6 7.84 14.84 3.98 3.15 10.65 18.18 2.31 20.64-1.64 0.14-0.01 3.8-1.39 3.68-0.17-1.01 9.68 12.6 7.8 18.77 2.8 2.12-1.72 11.27-10.17 12.31-16.25 0.08-0.48 5.15-2.19 5.15-2.19l0.37-7.1c-1.37-0.78-13.56 0.99-14.09 1.61-1.84 2.13-2.78 7.51 0.15 8.93 0.09-0.07-6.45 8.45-7.46 8.76-4.15 1.28-6.2 2.18-5.43-0.8 6.75-17.21 13.65-32.92 26.72-47.93 2.09-3.51-5.65-4.42-7.97-2.53-5.31 4.34-16.07 20.89-21.52 32.13-9.37 21.98-24.92 24.35-21.19 20.82 11.56-9.36 15.03-13.98 15.19-18.41 0.16-4.42-7.41-5.96-9.96-5.61-4.69 0.64-13.45 16.56-14.73 19.94-0.91 2.4-8.18 2.44-5.43-2.34 3.98-6.93 8.19-13.35 8.19-13.35-0.68-1.21 0.14-3.24-4.84-2.14-1.08 0.24-11.59 15.41-20.73 16.5-4.32 0.52-3.11-6.64 0.41-9.05 24.43-16.79 25.83-27.1 24.77-33.24-1-5.76-6.08-4.23-7.85-3.99-13.15 1.77-25.66 33.87-29.84 39.5-5.5 7.42-10.93 9.45-11.42 6.24 2.74-6.46 5.21-14.33 8.45-21.76 0 0 5.9-0.9 5.92-0.67l5.26-8.83-5.92 0.19 2.54-7.05-10.52-0.38-2.54 6.95-8.46-0.09 2.91-7.52c-2.9-0.42-6.08-0.56-9.49-0.47l-3.66 8.18z" style="fill:#3b43a8;stroke:#3b43a8"/><path transform="translate(7.3257451,10.313789)" id="path3796" d="m168.17 44.84c1.01 1.92 3 3.31 4.85 3.26-0.38 2.17-1.19 5.47-3.46 6.58-1.86 0.75-4.22-0.76-4.72-1.79-0.99-3.16 0.56-6.09 3.32-8.04z" style="fill:#fff;stroke:#fff"/><path transform="translate(7.3257451,10.313789)" id="path3800" d="m203.32 27.03c-2.66 5.96-5.5 11.22-7.84 18.47-0.58 2.19 2.01 5.55 5.45 2.39 4.93-4.41 7.94-13.12 11.56-20.46z" style="fill:#fff;stroke:#fff"/><path transform="translate(7.3257451,10.313789)" id="path3810" d="m256.08 13.08c-1.51 6.59-5.49 12.58-12.36 15.15 3.41-7.16 6.52-12.65 12.36-15.15z" style="fill:#fff;stroke:#fff"/><path transform="translate(7.3257451,10.313789)" id="path3812" d="m272.1 47.48c3.45-1.27 6.81-4.13 7.1-4.9 0.6-2.11-1.84-4.4-2.92-3.72-2.63 2.44-3.02 5.71-4.18 8.62z" style="fill:#fff;stroke:#fff"/><path transform="matrix(1.1930948,0,-0.43904106,1.1387632,-35.204986,7.9533687)" d="m271.63 24.9c0 2.72-1.93 4.92-4.32 4.92-2.39 0-4.32-2.2-4.32-4.92 0-2.72 1.93-4.92 4.32-4.92 2.39 0 4.32 2.2 4.32 4.92z" id="path3822" style="fill:#3b43a8;stroke:#3b43a8"/></g><path d="m680.23-40.84c-10.26 5.04-18.44 13.58-21.89 24.45 5.08 1.35 10.06 0.32 15.14-0.61 1.53 4.42 2.25 9.68 1.01 13.11-14.69 9.14-32.68 25.88-30.38 31.66 1.31 1.88 20.72-5.45 34.3-18.98 1.37 0.35 6.38 1.94 6.93 15.33-8.2 8.57-16.65 13.8-39.41 22.62-14.82 2.66-23.24-9.84-21.89-14.6 2.61-9.52 5.39-19.14 22.26-37.22-9.38-3.16-7.72-16.91-4.38-21.89 6.79-11.91 30.29-31.47 42.69-36.13 4.03-1.96 19.4 1.99 16.42 16.06-6.41 9.87-13.41 10.91-20.8 6.2z" id="path3838" style="fill:#3b43a8;stroke-width:1.94;stroke:#3b43a8"/><g id="g3860" transform="matrix(1.9417209,0,0,1.9417209,-17.483417,-95.832871)"><path transform="translate(7.3257451,10.313789)" id="path3842" d="m394.02 23.31c0 0 3.39-6.95 4.25-9.04-9.4 7.19-18.65 15.21-26.31 32.16-1.77 7.71 3.04 7.13 9.7 3.32 4.85-4.21 15.37-20.01 25.91-11.83 1.4-1.29 3.38-2.39 5.85-3.32 0.81 2.21 1.87 4.43 1.33 6.64l-6.11 3.99c1.14 15.36-15.51 26.15-25.38 10.63 0 0-15.42 7.71-17.54 5.32-5.95-4.89-4.95-9.09-3.99-13.29 8.45-19.29 14.11-29.11 31.88-39.76 2.66-1.6 6.04-2.14 9.45-3.03 6.76 1.34 8.91 5.21 0.13 18.21-3.08-0.21-9.18 0.06-9.17 0z" style="fill:#3b43a8;stroke:#3b43a8"/><path transform="translate(7.3257451,10.313789)" id="path3840" d="m396.41 55.87c1.68-0.89 4.96-4.06 5.58-6.11-2.62-0.11-5.13-0.78-5.58-4.25-1.55 1.29-6.73 11.79 0 10.37z" style="fill:#fff;stroke:#fff"/></g><path id="path3858" d="m428.3 56c0 3.34-3.09 6.05-6.91 6.05-3.82 0-6.91-2.71-6.91-6.05 0-3.34 3.09-6.05 6.91-6.05 3.82 0 6.91 2.71 6.91 6.05z" transform="matrix(1.5128637,0,-0.69665832,1.7827558,208.79524,-69.484566)" fill="#3b43a8"/></g></svg>